<svg xmlns="http://www.w3.org/2000/svg" viewBox="0 0 512 512">
  <defs>
    <filter id="shadow" x="-20%" y="-20%" width="140%" height="140%">
      <feDropShadow dx="0" dy="2" stdDeviation="3" flood-color="#000" flood-opacity="0.5"/>
    </filter>
    <radialGradient id="bgGlow" cx="50%" cy="50%" r="50%">
      <stop offset="0%" stop-color="#d4a24c" stop-opacity="0.1"/>
      <stop offset="100%" stop-color="#0a0807" stop-opacity="0"/>
    </radialGradient>
  </defs>

  <!-- Background fills edge-to-edge (required for maskable) -->
  <rect width="512" height="512" fill="#0a0807"/>
  <rect width="512" height="512" fill="url(#bgGlow)"/>

  <!--
    Maskable safe zone: circle centered at 256,256 with r=204 (80% of 256).
    All key content must stay within this circle.
    Swords scaled to ~3.4x and centered so they fit comfortably inside.
  -->
  <g transform="translate(256,256) scale(3.4) translate(-50,-50)" filter="url(#shadow)">
    <g transform="rotate(-32 50 50)">
      <polygon points="48,10 52,10 52,54 48,54" fill="#d4a24c"/>
      <polygon points="48,10 52,10 50,3" fill="#d4a24c"/>
      <polygon points="48,10 50,3 49,10" fill="#f0c060"/>
      <rect x="48" y="11" width="1" height="42" fill="#f0c060" opacity="0.7"/>
      <polygon points="33,55 67,55 64,61 36,61" fill="#d4a24c"/>
      <polygon points="33,55 67,55 65,57 35,57" fill="#f0c060"/>
      <polygon points="33,55 30,57 33,61" fill="#d4a24c"/>
      <polygon points="67,55 70,57 67,61" fill="#d4a24c"/>
      <rect x="46" y="61" width="8" height="18" fill="#d4a24c"/>
      <rect x="46" y="61" width="2" height="18" fill="#f0c060"/>
      <rect x="46" y="64" width="8" height="1.5" fill="#000" opacity="0.4"/>
      <rect x="46" y="68" width="8" height="1.5" fill="#000" opacity="0.4"/>
      <rect x="46" y="72" width="8" height="1.5" fill="#000" opacity="0.4"/>
      <rect x="46" y="76" width="8" height="1.5" fill="#000" opacity="0.4"/>
      <polygon points="50,79 56,85 50,91 44,85" fill="#d4a24c"/>
      <polygon points="50,81 54,85 50,89 46,85" fill="#f0c060"/>
    </g>
    <g transform="rotate(32 50 50)">
      <polygon points="48,10 52,10 52,54 48,54" fill="#d4a24c"/>
      <polygon points="48,10 52,10 50,3" fill="#d4a24c"/>
      <polygon points="48,10 50,3 49,10" fill="#f0c060"/>
      <rect x="48" y="11" width="1" height="42" fill="#f0c060" opacity="0.7"/>
      <polygon points="33,55 67,55 64,61 36,61" fill="#d4a24c"/>
      <polygon points="33,55 67,55 65,57 35,57" fill="#f0c060"/>
      <polygon points="33,55 30,57 33,61" fill="#d4a24c"/>
      <polygon points="67,55 70,57 67,61" fill="#d4a24c"/>
      <rect x="46" y="61" width="8" height="18" fill="#d4a24c"/>
      <rect x="46" y="61" width="2" height="18" fill="#f0c060"/>
      <rect x="46" y="64" width="8" height="1.5" fill="#000" opacity="0.4"/>
      <rect x="46" y="68" width="8" height="1.5" fill="#000" opacity="0.4"/>
      <rect x="46" y="72" width="8" height="1.5" fill="#000" opacity="0.4"/>
      <rect x="46" y="76" width="8" height="1.5" fill="#000" opacity="0.4"/>
      <polygon points="50,79 56,85 50,91 44,85" fill="#d4a24c"/>
      <polygon points="50,81 54,85 50,89 46,85" fill="#f0c060"/>
    </g>
    <rect x="47" y="47" width="6" height="6" fill="#f0c060" transform="rotate(45 50 50)"/>
    <rect x="48.5" y="48.5" width="3" height="3" fill="#0a0807" transform="rotate(45 50 50)"/>
  </g>
</svg>
